<svg width="33" height="34" viewBox="0 0 33 34" fill="none" xmlns="http://www.w3.org/2000/svg">
<path d="M14.934 15.0711C14.934 19.5541 12.38 17.1091 9.22798 17.1091C6.07698 17.1091 3.52198 19.5551 3.52198 15.0711C3.52198 12.1451 6.07698 8.95806 9.22798 8.95806C12.379 8.95806 14.934 12.1451 14.934 15.0711ZM3.30198 6.99506C3.69498 8.33006 3.30898 9.62006 2.43998 9.87606C1.56998 10.1321 0.546984 9.25706 0.153984 7.92106C-0.239016 6.58606 0.145984 5.29606 1.01598 5.04006C1.88598 4.78406 2.90898 5.65906 3.30198 6.99506ZM18.302 7.93906C17.895 9.27106 16.86 10.1351 15.99 9.86906C15.12 9.60306 14.746 8.30806 15.153 6.97606C15.56 5.64406 16.595 4.78006 17.465 5.04606C18.334 5.31206 18.709 6.60706 18.302 7.93906ZM8.19198 3.08006C8.55798 4.97806 7.97498 6.68606 6.88998 6.89506C5.80598 7.10306 4.62998 5.73406 4.26498 3.83606C3.89798 1.93806 4.48098 0.230063 5.56598 0.021063C6.65098 -0.187937 7.82698 1.18206 8.19198 3.08006ZM14.188 3.85806C13.801 5.75206 12.61 7.10806 11.528 6.88706C10.446 6.66606 9.88198 4.95106 10.269 3.05706C10.656 1.16306 11.847 -0.192937 12.929 0.0280631C14.011 0.250063 14.574 1.96406 14.188 3.85806ZM28.934 31.0711C28.934 35.5541 26.379 33.1091 23.228 33.1091C20.077 33.1091 17.522 35.5541 17.522 31.0711C17.522 28.1461 20.077 24.9581 23.228 24.9581C26.379 24.9581 28.934 28.1461 28.934 31.0711ZM17.302 22.9941C17.696 24.3301 17.309 25.6201 16.44 25.8761C15.57 26.1321 14.547 25.2571 14.154 23.9221C13.761 22.5861 14.147 21.2961 15.016 21.0401C15.886 20.7841 16.909 21.6591 17.302 22.9941ZM32.302 23.9391C31.895 25.2711 30.86 26.1351 29.99 25.8691C29.121 25.6031 28.746 24.3081 29.153 22.9771C29.56 21.6451 30.595 20.7811 31.465 21.0471C32.334 21.3121 32.709 22.6071 32.302 23.9391ZM22.192 19.0801C22.557 20.9771 21.974 22.6861 20.89 22.8941C19.805 23.1031 18.629 21.7341 18.264 19.8351C17.899 17.9371 18.482 16.2291 19.566 16.0201C20.651 15.8121 21.827 17.1821 22.192 19.0801ZM28.188 19.8581C27.8 21.7511 26.61 23.1081 25.528 22.8871C24.446 22.6651 23.881 20.9501 24.268 19.0571C24.656 17.1631 25.846 15.8071 26.928 16.0281C28.01 16.2501 28.575 17.9651 28.188 19.8581Z" fill="#FF7A00"/>
</svg>
