<svg width="45" height="40" viewBox="0 0 45 40" fill="none" xmlns="http://www.w3.org/2000/svg">
<path d="M16.3609 39.74C14.98 39.74 13.6237 39.4088 12.43 38.78C11.2255 38.1478 10.2247 37.241 9.5273 36.1498C8.82991 35.0584 8.46023 33.8208 8.45504 32.56C8.44431 32.5138 8.44431 32.4662 8.45504 32.42C7.05306 32.4526 5.66685 32.146 4.43935 31.5318C3.21184 30.9176 2.18749 30.0178 1.4719 28.9254C0.756309 27.8332 0.375438 26.5876 0.368504 25.3176C0.361592 24.0474 0.728904 22.7986 1.43255 21.7C2.47404 20.0716 4.17814 18.8772 6.17998 18.3726C8.18181 17.8678 10.3222 18.0932 12.143 19L21.6829 10.58C21.0399 9.53462 20.7051 8.3567 20.7113 7.16C20.7113 5.26104 21.5442 3.43988 23.0269 2.09712C24.5096 0.75436 26.5203 0 28.6171 0C30.7139 0 32.7248 0.75436 34.2075 2.09712C35.6899 3.43988 36.5229 5.26104 36.5229 7.16C36.532 7.2063 36.532 7.2537 36.5229 7.3C37.9404 7.27162 39.3401 7.58898 40.5756 8.21882C41.8112 8.84866 42.837 9.76782 43.5454 10.88C44.2349 11.9694 44.5957 13.2037 44.5919 14.4592C44.5882 15.7148 44.2201 16.9474 43.5242 18.0334C42.8286 19.1194 41.8298 20.0206 40.628 20.6466C39.4262 21.2726 38.0639 21.6014 36.6775 21.6C35.8909 21.6044 35.1083 21.4964 34.3588 21.28C33.7994 21.113 33.3363 20.7514 33.0713 20.275C32.8063 19.7988 32.761 19.2466 32.9454 18.74C33.13 18.2334 33.5291 17.814 34.0551 17.574C34.5809 17.334 35.1906 17.293 35.75 17.46C36.4977 17.6418 37.2905 17.5976 38.008 17.334C38.7255 17.0706 39.3284 16.6022 39.725 16C40.0176 15.5302 40.17 14.9994 40.1667 14.46C40.1724 13.9267 40.0198 13.4017 39.725 12.94C39.2738 12.2298 38.5409 11.7021 37.6752 11.4642C36.8093 11.2264 35.8761 11.2964 35.0654 11.66C34.7013 11.8237 34.3016 11.9125 33.895 11.92C33.5611 11.9308 33.2281 11.8802 32.9163 11.7712C32.6045 11.6623 32.3202 11.4972 32.0806 11.286C31.8412 11.0747 31.6516 10.8218 31.5233 10.5423C31.3947 10.2628 31.3302 9.9627 31.3333 9.66C31.3397 9.29798 31.438 8.94214 31.6204 8.62C31.8708 8.16606 32.0067 7.66734 32.0179 7.16C32.0179 6.74502 31.9276 6.3341 31.7523 5.95072C31.5769 5.56734 31.3201 5.21898 30.9959 4.92554C30.6719 4.6321 30.2875 4.39934 29.8641 4.24054C29.4408 4.08174 28.987 4 28.5287 4C28.0705 4 27.6169 4.08174 27.1936 4.24054C26.7703 4.39934 26.3856 4.6321 26.0616 4.92554C25.7376 5.21898 25.4806 5.56734 25.3052 5.95072C25.1299 6.3341 25.0396 6.74502 25.0396 7.16C25.0374 7.57264 25.1259 7.98156 25.3004 8.36278C25.4748 8.74398 25.7315 9.08982 26.0554 9.38C26.2668 9.56758 26.4344 9.79172 26.5481 10.0391C26.6618 10.2865 26.7197 10.552 26.7179 10.82C26.6936 11.3542 26.4494 11.8607 26.0333 12.24L13.8875 23.06C13.4738 23.4326 12.9141 23.6416 12.3307 23.6416C11.7473 23.6416 11.1875 23.4326 10.7738 23.06C10.4534 22.7666 10.0715 22.5342 9.65059 22.3762C9.22968 22.2182 8.77817 22.1378 8.32255 22.14C7.69759 22.1364 7.08301 22.2848 6.54303 22.5696C6.00307 22.8546 5.55751 23.2658 5.25296 23.76C4.96274 24.2272 4.8103 24.754 4.8103 25.29C4.8103 25.826 4.96274 26.3528 5.25296 26.82C5.73292 27.5074 6.47773 28.0086 7.34282 28.2266C8.20791 28.4448 9.13159 28.364 9.93463 28C10.2887 27.8284 10.6816 27.7326 11.083 27.72C11.4207 27.7062 11.7579 27.7554 12.0739 27.8644C12.3898 27.9732 12.6777 28.1398 12.9199 28.3534C13.162 28.567 13.3532 28.8234 13.4817 29.1066C13.6101 29.3898 13.6731 29.6938 13.6667 30C13.6606 30.3684 13.5625 30.7308 13.3796 31.06C13.1292 31.514 12.9934 32.0126 12.9821 32.52C12.9842 33.0846 13.1532 33.6384 13.4717 34.1238C13.7902 34.6092 14.2464 35.0084 14.793 35.28C15.308 35.5448 15.8901 35.6838 16.4823 35.6838C17.0745 35.6838 17.6566 35.5448 18.1717 35.28C18.6409 35.0398 19.0429 34.7048 19.3461 34.3012C19.6495 33.8976 19.846 33.4362 19.9209 32.9528C19.9955 32.4692 19.9463 31.9768 19.7771 31.5132C19.6077 31.0498 19.3229 30.6278 18.9446 30.28C18.7359 30.0948 18.57 29.8738 18.4563 29.6302C18.3426 29.3864 18.2834 29.1246 18.2821 28.86C18.3022 28.325 18.5471 27.817 18.9667 27.44L26.8504 20.46C27.2691 20.0886 27.8338 19.8832 28.4197 19.8888C29.0058 19.8946 29.5653 20.1108 29.9752 20.49C30.3853 20.8692 30.6121 21.3804 30.6059 21.9112C30.5997 22.442 30.3608 22.9486 29.9421 23.32L23.3171 29.1C23.9604 30.1454 24.2949 31.3234 24.2888 32.52C24.2936 33.7904 23.9261 35.0392 23.2239 36.139C22.5216 37.2388 21.5098 38.1502 20.2917 38.78C19.0989 39.4106 17.7421 39.742 16.3609 39.74Z" fill="white"/>
</svg>
